# File created by Blade
# Date/Time:  Tue Jan 27 20:12:02 2015
# Frame Rate: 120.000 fps
#------------------------------------------------------
:FULLY-SPECIFIED
:DEGREES
1681
root 9.070601 31.931534 -4.080055 6.896923 13.041360 3.583920
Spine -0.210896 3.965095 -7.542905
Head 8.634203 -20.361088 3.077181
LeftShoulder -15.026854 -2.884315 29.575546
LeftArm -10.458982 -32.331784 -68.746509
LeftForeArm -8.551111 -0.000000 93.467264
LeftHand 18.732951 -0.000000 9.356823
LeftHandThumb1 -26.253704 0.000000 33.147579
RightShoulder -20.100447 -23.155269 -23.296310
RightArm 10.912247 -38.645999 88.585856
RightForeArm -23.825186 -0.000000 103.802569
RightHand 18.081313 -0.000000 0.479236
RightHandThumb1 -24.326973 -0.000000 -32.862282
LeftUpLeg -0.543450 -9.814337 -11.727140
LeftLeg -3.044018 -0.000000 0.000000
LeftFoot -10.594220 11.064770 -13.190588
LeftToeBase 23.648297 -0.000000 -0.000000
RightUpLeg 0.732830 7.530250 3.092478
RightLeg 90.512130 -0.000000 -0.000000
RightFoot 27.665303 -22.845342 34.435540
RightToeBase 17.536626 -0.000000 -0.000000
1682
root 9.078772 31.932332 -4.110806 7.035918 13.007856 3.510230
Spine -0.240501 3.786681 -7.349110
Head 8.381220 -20.195648 3.065425
LeftShoulder -15.049131 -2.787990 29.413582
LeftArm -10.573715 -32.490460 -68.689170
LeftForeArm -8.613539 -0.000000 93.598534
LeftHand 18.748889 -0.000000 9.405630
LeftHandThumb1 -26.253704 0.000000 33.147579
RightShoulder -20.113914 -23.215987 -23.253701
RightArm 11.082363 -38.531558 88.477929
RightForeArm -23.838953 -0.000000 103.798830
RightHand 18.125705 -0.000000 0.491003
RightHandThumb1 -24.326973 -0.000000 -32.862282
LeftUpLeg -0.640266 -10.160596 -11.648696
LeftLeg -3.264682 -0.000000 0.000000
LeftFoot -10.489577 11.486089 -13.101724
LeftToeBase 23.416619 -0.000000 -0.000000
RightUpLeg 0.515882 8.899668 3.004908
RightLeg 90.912419 -0.000000 -0.000000
RightFoot 27.770786 -22.696619 34.013183
RightToeBase 17.597867 -0.000000 -0.000000
1683
root 9.085860 31.933431 -4.142645 7.164716 12.986466 3.436876
Spine -0.245866 3.611639 -7.158774
Head 8.120192 -20.045169 3.069947
LeftShoulder -15.106248 -2.758608 29.286663
LeftArm -10.707980 -32.574636 -68.648503
LeftForeArm -8.617724 0.000000 93.733898
LeftHand 18.743581 -0.000000 9.458043
LeftHandThumb1 -26.253704 0.000000 33.147579
RightShoulder -20.142104 -23.264183 -23.208841
RightArm 11.257815 -38.420327 88.372986
RightForeArm -23.807758 -0.000000 103.778564
RightHand 18.169591 0.000000 0.492269
RightHandThumb1 -24.326973 -0.000000 -32.862282
LeftUpLeg -0.719543 -10.395511 -11.580945
LeftLeg -3.493438 -0.000000 0.000000
LeftFoot -10.490326 11.875527 -13.193468
LeftToeBase 23.246069 -0.000000 -0.000000
RightUpLeg 0.254525 10.133666 2.879131
RightLeg 91.340119 -0.000000 -0.000000
RightFoot 27.819503 -22.712575 33.975848
RightToeBase 17.926835 -0.000000 -0.000000
1684
root 9.091038 31.935589 -4.178278 7.305598 12.974943 3.385595
Spine -0.244684 3.438091 -7.000774
Head 7.868915 -19.924167 3.075620
LeftShoulder -15.135670 -2.785921 29.196075
LeftArm -10.903579 -32.664253 -68.594413
LeftForeArm -8.683198 -0.000000 93.890544
LeftHand 18.715895 -0.000000 9.281926
LeftHandThumb1 -26.253704 0.000000 33.147579
RightShoulder -20.139697 -23.240011 -23.200819
RightArm 11.293941 -38.286362 88.403929
RightForeArm -23.807216 -0.000000 103.757753
RightHand 18.192655 -0.000000 0.408290
RightHandThumb1 -24.326973 -0.000000 -32.862282
LeftUpLeg -0.793122 -10.671604 -11.502331
LeftLeg -3.802066 -0.000000 0.000000
LeftFoot -10.343774 12.175441 -13.256557
LeftToeBase 23.681858 -0.000000 -0.000000
RightUpLeg -0.058312 11.185247 2.690724
RightLeg 91.764403 -0.000000 -0.000000
RightFoot 27.755113 -22.739810 34.039784
RightToeBase 18.365068 -0.000000 -0.000000
1685
root 9.099541 31.939037 -4.214666 7.439236 13.011938 3.320598
Spine -0.245733 3.244022 -6.804457
Head 7.675634 -19.796632 3.043068
LeftShoulder -15.131846 -2.722755 29.096761
LeftArm -11.007125 -32.782183 -68.655255
LeftForeArm -8.705292 -0.000000 94.039493
LeftHand 18.697814 -0.000000 9.300002
LeftHandThumb1 -26.253704 0.000000 33.147579
RightShoulder -20.119525 -23.189027 -23.230401
RightArm 11.237234 -38.124817 88.495314
RightForeArm -23.832374 -0.000000 103.757495
RightHand 18.148555 -0.000000 0.373781
RightHandThumb1 -24.326973 -0.000000 -32.862282
LeftUpLeg -0.838302 -11.066990 -11.408186
LeftLeg -4.125080 -0.000000 0.000000
LeftFoot -10.196354 12.582109 -13.334356
LeftToeBase 23.299899 -0.000000 -0.000000
RightUpLeg -0.380463 12.143645 2.514490
RightLeg 92.184851 -0.000000 -0.000000
RightFoot 27.730837 -22.674585 34.189164
RightToeBase 18.895175 -0.000000 -0.000000
